<svg width="137" height="103" viewBox="0 0 137 103" fill="none" xmlns="http://www.w3.org/2000/svg">
<path d="M99.6647 99.8159L106 79H64.7237C64.4661 79 64.3372 79 64.2172 79.0302C64.0968 79.0604 63.9831 79.1129 63.8818 79.1848C63.781 79.2564 63.6973 79.3544 63.5299 79.5503L43.9531 102.47C43.814 102.632 43.7445 102.714 43.7409 102.782C43.7374 102.849 43.7678 102.913 43.8218 102.953C43.8764 102.993 43.9834 102.991 44.1975 102.987L96.7173 102.041C97.5113 102.027 97.9082 102.02 98.2451 101.887C98.5824 101.753 98.8771 101.531 99.0976 101.243C99.3179 100.955 99.4335 100.576 99.6647 99.8159Z" fill="#BA73F3"/>
<path d="M0.722241 101.5H35.5C35.5 101.5 56.5823 75.7109 74 64C95.6972 49.4117 136.5 40 136.5 40C136.5 40 87.9257 40.1487 60.5 52.5C33.9467 64.4584 2.91603 98.7999 0.633866 101.35C0.576371 101.414 0.636027 101.5 0.722241 101.5Z" fill="#773699"/>
<path d="M22.7146 68.3644L60.467 44.5208C60.4882 44.5074 60.5036 44.4866 60.5102 44.4623L72.5 0H40.5L22.5645 68.2545C22.5414 68.3423 22.6379 68.4129 22.7146 68.3644Z" fill="#BA73F3"/>
</svg>
