<svg width="24" height="24" viewBox="0 0 24 24" fill="none" xmlns="http://www.w3.org/2000/svg">
<g clip-path="url(#clip0_13_120)">
<path d="M3.75 9.49996C3.55109 9.49996 3.36032 9.42095 3.21967 9.28029C3.07902 9.13964 3 8.94888 3 8.74996V2.75146C3 2.55255 3.07902 2.36179 3.21967 2.22113C3.36032 2.08048 3.55109 2.00146 3.75 2.00146H9.75C9.94891 2.00146 10.1397 2.08048 10.2803 2.22113C10.421 2.36179 10.5 2.55255 10.5 2.75146V8.74996C10.5 8.94888 10.421 9.13964 10.2803 9.28029C10.1397 9.42095 9.94891 9.49996 9.75 9.49996H3.75ZM14.25 9.49996C14.0511 9.49996 13.8603 9.42095 13.7197 9.28029C13.579 9.13964 13.5 8.94888 13.5 8.74996V2.75146C13.5 2.55255 13.579 2.36179 13.7197 2.22113C13.8603 2.08048 14.0511 2.00146 14.25 2.00146H20.2485C20.4474 2.00146 20.6382 2.08048 20.7788 2.22113C20.9195 2.36179 20.9985 2.55255 20.9985 2.75146V8.74996C20.9985 8.94888 20.9195 9.13964 20.7788 9.28029C20.6382 9.42095 20.4474 9.49996 20.2485 9.49996H14.25ZM3.75 20C3.55109 20 3.36032 19.9209 3.21967 19.7803C3.07902 19.6396 3 19.4489 3 19.25V13.25C3 13.0511 3.07902 12.8603 3.21967 12.7196C3.36032 12.579 3.55109 12.5 3.75 12.5H9.75C9.94891 12.5 10.1397 12.579 10.2803 12.7196C10.421 12.8603 10.5 13.0511 10.5 13.25V19.25C10.5 19.4489 10.421 19.6396 10.2803 19.7803C10.1397 19.9209 9.94891 20 9.75 20H3.75ZM14.25 20C14.0511 20 13.8603 19.9209 13.7197 19.7803C13.579 19.6396 13.5 19.4489 13.5 19.25V13.25C13.5 13.0511 13.579 12.8603 13.7197 12.7196C13.8603 12.579 14.0511 12.5 14.25 12.5H20.2485C20.4474 12.5 20.6382 12.579 20.7788 12.7196C20.9195 12.8603 20.9985 13.0511 20.9985 13.25V19.25C20.9985 19.4489 20.9195 19.6396 20.7788 19.7803C20.6382 19.9209 20.4474 20 20.2485 20H14.25Z" fill="black"/>
</g>
<defs>
<clipPath id="clip0_13_120">
<rect width="24" height="24" fill="white"/>
</clipPath>
</defs>
</svg>
